<svg xmlns="http://www.w3.org/2000/svg" viewBox="0 0 512 512"><path d="M404.741 464.038c64.855-46.403 107.122-122.357 107.122-208.183C511.863 114.578 397.335.05 256.058.05S.253 114.577.253 255.854c0 195.673 211.028 318.154 380.455 223.434M256.058 349.82c-51.895 0-93.964-42.071-93.964-93.965s42.07-93.963 93.964-93.963 93.964 42.069 93.964 93.963-42.069 93.965-93.964 93.965z" fill="#ffc373"/><path d="M31.539 255.854C31.539 119.832 137.712 8.625 271.702.538 123.747-8.387.253 109.079.253 255.854c0 146.678 123.408 264.289 271.553 255.323-134.04-8.035-240.267-119.264-240.267-255.323z" fill="#ef9a4d"/><path d="M305.252 429.263c6.956 4.518 16.524 10.974 28.084 9.286 10.555-.995 12.132-3.225 53.821-30.313 4.906-2.896 19.42-9.534 35.866 1.148l.002.003 24.592 15.976c39.967-45.133 64.245-104.48 64.245-169.51C511.862 114.576 397.334.048 256.057.048S.252 114.576.252 255.853c0 65.028 24.278 124.377 64.246 169.51l24.591-15.976.002-.003c16.444-10.682 30.959-4.045 35.868-1.148 26.748 17.381 17.752 11.536 39.571 25.711 5.794 3.396 12.351 4.604 14.29 4.604 15.036 1.49 21.915-5.308 58.635-29.165 1.254-1.254 18.14-12.387 37.202-.003l.002.003 5.86 4.196m-24.461-63.762c-51.895 0-93.964-42.071-93.964-93.965s42.07-93.963 93.964-93.963 93.964 42.069 93.964 93.963-42.069 93.965-93.964 93.965z" fill="#fc3842"/><path d="M317.188 327.185c41.005 38.435 95.662 62.478 155.922 64.045 96.647-154.588 3.992-359.473-176.844-388.026-36.31 44.026-56.145 100.152-53.948 159.698 57.071-8.368 107.705 35.862 107.705 92.952-.001 28.545-12.745 54.097-32.835 71.331z" fill="#fc5162"/><path d="M15.46 342.912c14.869 41.225 34.816 65.158 49.039 82.452l20.347-13.22c-33.413-43.221-53.307-97.428-53.307-156.289C31.538 119.833 137.711 8.627 271.7.54c-.982-.112-9.459-.49-15.642-.49C78.093.049-44.7 177.212 15.46 342.912z" fill="#ef2235"/><g fill="#2ebb4e"><circle cx="196.1" cy="95.897" r="15.301"/><circle cx="136.196" cy="342.579" r="15.302"/></g><g fill="#fc0"><circle cx="421.059" cy="157.48" r="15.301"/><circle cx="338.292" cy="368.56" r="15.302"/></g><g fill="#57bae5"><circle cx="436.357" cy="287.132" r="15.301"/><circle cx="299.042" cy="111.196" r="15.3"/><circle cx="98.815" cy="267.836" r="15.301"/></g><circle cx="370.018" cy="151.165" r="10.831" fill="#ecf1f8"/><circle cx="98.815" cy="142.022" r="10.832" fill="#ffc373"/><circle cx="52.04" cy="293.966" r="10.832" fill="#f9d58c"/><circle cx="245.223" cy="72.902" r="10.832" fill="#ecf1f8"/><circle cx="391.681" cy="342.559" r="10.832" fill="#f9d58c"/><circle cx="169.96" cy="379.391" r="10.832" fill="#ecf1f8"/><circle cx="443.392" cy="219.373" r="10.832" fill="#ffc373"/><path d="M384.825 230.456l-15.049-7.067a8.343 8.343 0 0 1 7.091-15.103l15.049 7.067a8.342 8.342 0 0 1-7.091 15.103z" fill="#57bae5"/><g fill="#fc0"><path d="M82.615 216.092l-15.05-7.067a8.344 8.344 0 0 1-4.006-11.097c1.959-4.17 6.928-5.959 11.097-4.006l15.05 7.067a8.342 8.342 0 0 1-7.091 15.103zM334.749 80.453l-15.05-7.066a8.343 8.343 0 0 1-4.006-11.097c1.958-4.17 6.928-5.961 11.096-4.006l15.05 7.067a8.342 8.342 0 0 1-7.09 15.102zM163.111 153.267l-15.05-7.066a8.342 8.342 0 0 1-4.006-11.096c1.959-4.169 6.927-5.959 11.096-4.005l15.05 7.065a8.342 8.342 0 0 1-7.09 15.102zM359.109 319.211a8.34 8.34 0 0 1 2.77-11.466l14.187-8.665a8.342 8.342 0 0 1 8.695 14.237l-14.186 8.664c-3.925 2.401-9.063 1.165-11.466-2.77zM71.98 340.019c-8.371 0-11.544-11.074-4.356-15.461l14.188-8.665a8.341 8.341 0 0 1 8.696 14.238l-14.188 8.664a8.29 8.29 0 0 1-4.34 1.224z"/></g></svg>