<?xml version="1.0" encoding="UTF-8" standalone="no"?>
<svg
   xmlns:dc="http://purl.org/dc/elements/1.1/"
   xmlns:cc="http://creativecommons.org/ns#"
   xmlns:rdf="http://www.w3.org/1999/02/22-rdf-syntax-ns#"
   xmlns:svg="http://www.w3.org/2000/svg"
   xmlns="http://www.w3.org/2000/svg"
   xmlns:sodipodi="http://sodipodi.sourceforge.net/DTD/sodipodi-0.dtd"
   xmlns:inkscape="http://www.inkscape.org/namespaces/inkscape"
   height="10.620689"
   version="1.1"
   viewBox="0 0 14 10.620689"
   width="14"
   id="svg11"
   sodipodi:docname="file.svg"
   inkscape:version="0.92.1 r15371">
  <metadata
     id="metadata15">
    <rdf:RDF>
      <cc:Work
         rdf:about="">
        <dc:format>image/svg+xml</dc:format>
        <dc:type
           rdf:resource="http://purl.org/dc/dcmitype/StillImage" />
      </cc:Work>
    </rdf:RDF>
  </metadata>
  <sodipodi:namedview
     pagecolor="#ffffff"
     bordercolor="#666666"
     borderopacity="1"
     objecttolerance="10"
     gridtolerance="10"
     guidetolerance="10"
     inkscape:pageopacity="0"
     inkscape:pageshadow="2"
     inkscape:window-width="1495"
     inkscape:window-height="751"
     id="namedview13"
     showgrid="false"
     inkscape:zoom="7.4160678"
     inkscape:cx="3.343578"
     inkscape:cy="12.721816"
     inkscape:window-x="2218"
     inkscape:window-y="119"
     inkscape:window-maximized="0"
     inkscape:current-layer="svg11" />
  <title
     id="title2" />
  <desc
     id="desc4" />
  <defs
     id="defs6" />
  <g
     id="Page-1"
     transform="matrix(0.48275862,0,0,0.48275862,-0.96551724,-2.4137931)"
     style="fill:none;fill-rule:evenodd;stroke:none;stroke-width:1">
    <g
       id="icon-94-folder"
       style="fill:currentColor">
      <path
         d="M 17,9 15,5 H 4.0027601 C 2.8966663,5 2,5.8896739 2,6.991155 v 18.01769 C 2,26.108529 2.8997127,27 3.9932874,27 H 29.006713 C 30.107575,27 31,26.107377 31,25.004911 V 10.995089 C 31,9.8932319 30.10294,9 28.994141,9 Z M 16.359985,10 14.400024,6 H 3.9917348 C 3.4440148,6 3,6.4553056 3,6.9918031 V 25.008197 C 3,25.555955 3.4461086,26 3.9929654,26 H 29.007035 C 29.555434,26 30,25.555369 30,24.999128 V 11.000872 C 30,10.448106 29.546172,10 28.997017,10 Z"
         id="folder"
         inkscape:connector-curvature="0" />
    </g>
  </g>
</svg>
